<svg width="146" height="145" viewBox="0 0 146 145" fill="none" xmlns="http://www.w3.org/2000/svg">
<g filter="url(#filter0_d_1_84)">
<rect x="30" y="30" width="86" height="85" rx="15" fill="#3D81C2"/>
</g>
<path d="M83.9007 72.7419C83.7754 72.6175 83.6269 72.519 83.4635 72.452C83.3001 72.385 83.1252 72.3508 82.9486 72.3514C82.772 72.3521 82.5973 72.3875 82.4345 72.4556C82.2716 72.5238 82.1237 72.6233 81.9993 72.7486C81.8749 72.8739 81.7764 73.0225 81.7094 73.1858C81.6424 73.3492 81.6082 73.5241 81.6089 73.7007C81.6095 73.8773 81.6449 74.052 81.713 74.2149C81.7812 74.3777 81.8807 74.5256 82.006 74.65C83.1431 75.775 84.0456 77.1144 84.6615 78.5906C85.2773 80.0668 85.5942 81.6505 85.5938 83.25C85.5938 84.8894 80.8773 87.2813 73.5001 87.2813C66.1229 87.2813 61.4063 84.8894 61.4063 83.25C61.4042 81.661 61.7152 80.0872 62.3216 78.6185C62.928 77.1498 63.8179 75.815 64.9404 74.6903C65.1907 74.4386 65.3311 74.098 65.3311 73.743C65.3311 73.388 65.1907 73.0474 64.9404 72.7956C64.6886 72.5454 64.3481 72.4049 63.9931 72.4049C63.6381 72.4049 63.2975 72.5454 63.0457 72.7956C61.6685 74.1651 60.5769 75.7944 59.8341 77.589C59.0914 79.3836 58.7123 81.3078 58.7188 83.25C58.7188 87.6172 66.3379 89.9688 73.5001 89.9688C80.6623 89.9688 88.2813 87.6172 88.2813 83.25C88.2865 81.2952 87.9017 79.359 87.1495 77.5547C86.3974 75.7504 85.2929 74.1142 83.9007 72.7419Z" fill="white"/>
<path d="M73.5 73.8438C75.3604 73.8438 77.179 73.2921 78.7258 72.2585C80.2727 71.2249 81.4783 69.7559 82.1902 68.0371C82.9022 66.3184 83.0885 64.4271 82.7255 62.6024C82.3626 60.7778 81.4667 59.1018 80.1512 57.7863C78.8357 56.4708 77.1597 55.5749 75.3351 55.212C73.5104 54.8491 71.6192 55.0353 69.9004 55.7473C68.1816 56.4592 66.7126 57.6648 65.679 59.2117C64.6454 60.7585 64.0938 62.5771 64.0938 64.4375C64.0938 66.9322 65.0848 69.3247 66.8488 71.0887C68.6128 72.8527 71.0053 73.8438 73.5 73.8438ZM73.5 57.7188C74.8288 57.7188 76.1278 58.1128 77.2327 58.8511C78.3376 59.5893 79.1988 60.6387 79.7073 61.8664C80.2158 63.094 80.3489 64.445 80.0897 65.7483C79.8304 67.0516 79.1905 68.2487 78.2509 69.1884C77.3112 70.128 76.1141 70.7679 74.8108 71.0272C73.5075 71.2864 72.1565 71.1533 70.9288 70.6448C69.7012 70.1363 68.6518 69.2751 67.9136 68.1702C67.1753 67.0653 66.7812 65.7663 66.7812 64.4375C66.7812 62.6556 67.4891 60.9466 68.7491 59.6866C70.0091 58.4266 71.7181 57.7188 73.5 57.7188Z" fill="white"/>
<defs>
<filter id="filter0_d_1_84" x="0" y="0" width="146" height="145" filterUnits="userSpaceOnUse" color-interpolation-filters="sRGB">
<feFlood flood-opacity="0" result="BackgroundImageFix"/>
<feColorMatrix in="SourceAlpha" type="matrix" values="0 0 0 0 0 0 0 0 0 0 0 0 0 0 0 0 0 0 127 0" result="hardAlpha"/>
<feOffset/>
<feGaussianBlur stdDeviation="15"/>
<feComposite in2="hardAlpha" operator="out"/>
<feColorMatrix type="matrix" values="0 0 0 0 0 0 0 0 0 0 0 0 0 0 0 0 0 0 0.15 0"/>
<feBlend mode="normal" in2="BackgroundImageFix" result="effect1_dropShadow_1_84"/>
<feBlend mode="normal" in="SourceGraphic" in2="effect1_dropShadow_1_84" result="shape"/>
</filter>
</defs>
</svg>
